<svg xmlns="http://www.w3.org/2000/svg" width="56" height="43" viewBox="0 0 56 43">
    <g fill="none" fill-rule="evenodd">
        <path fill="#2E2D42" d="M25.79 15.441h.512l.497-.428.497.428h1.283l.498-.428.499.429h.517l-1.024 7.302h-2.255l-1.024-7.303zm2.15-12.602c4.742 0 8.599 3.857 8.599 8.596-.002.042-.139 4.286-3.643 8.8-.463.614-.78 1.457-.948 2.51h-.896l1.324-9.437-1.557-.217-.102-.12-.105.09-.18-.025-.03.206-.185.16-.5-.43h-1.282l-.498.428-.495-.428h-1.284l-.496.428-.18-.156-.03-.208-.182.026-.103-.09-.101.118-1.56.218 1.324 9.436h-.907c-.164-1.053-.48-1.897-.948-2.522-3.497-4.5-3.632-8.745-3.632-8.784 0-4.742 3.857-8.6 8.598-8.6zM9.066 11.525h8.316c.013.236.066.944.283 1.965.405 1.898 1.383 4.88 3.75 7.925.346.461.577 1.305.65 2.378l.06.916h.285v.113h1.73v.947h-1.73v1.963h11.064v-1.963h-7.369v-.947h7.37v-.113h.261l.067-.91c.079-1.074.315-1.92.655-2.373 2.372-3.054 3.354-6.036 3.758-7.936.22-1.021.272-1.73.284-1.965h8.317c.222 0 .403.181.403.403v24.586H8.663V11.928c0-.222.18-.403.402-.403zm44.19 27.94c-.615.394-1.563.892-2.172.892H4.798c-.594 0-1.521-.474-2.171-.892v-.987h50.629v.987zm-4.072-27.537a2.37 2.37 0 0 0-2.367-2.366h-8.49C37.437 4.63 33.125.875 27.942.875S18.444 4.63 17.555 9.562h-8.49A2.368 2.368 0 0 0 6.7 11.928v24.586H.663v3.96l.394.294c.213.158 2.125 1.552 3.741 1.552h46.285c1.616 0 3.53-1.394 3.742-1.552l.395-.295v-3.96h-6.037V11.929z"/>
        <path fill="#FEFEFE" d="M24.324 30.644h7.235V28.68h-7.235v1.964zm-13.697 3.994h34.626V13.49h-7.036c-.407 1.9-1.39 4.881-3.76 7.936-.34.452-.577 1.299-.655 2.373l-.066.91h-.263v.112h-7.368v.948h7.368v1.964H22.41v-1.964h1.73v-.948h-1.73v-.112h-.285l-.062-.917c-.072-1.073-.302-1.916-.65-2.378-2.366-3.045-3.344-6.026-3.749-7.924h-7.037v21.148z"/>
        <path fill="#2E2D42" d="M24.323 30.644h7.235V28.68h-7.235z"/>
    </g>
</svg>
