<?xml version="1.0" encoding="utf-8"?>
<!-- Generator: Adobe Illustrator 25.2.3, SVG Export Plug-In . SVG Version: 6.00 Build 0)  -->
<svg version="1.1" id="Layer_1" xmlns="http://www.w3.org/2000/svg" xmlns:xlink="http://www.w3.org/1999/xlink" x="0px" y="0px"
	 viewBox="0 0 36.2 61" style="enable-background:new 0 0 36.2 61;" xml:space="preserve">
<style type="text/css">
	.st0{fill:none;stroke:#2E2E41;stroke-width:2;}
	.st1{fill-rule:evenodd;clip-rule:evenodd;fill:#FFFFFF;}
</style>
<g>
	<path class="st0" d="M28.7,46.2l3.7,1.6l1.9-3.3l-7.9-22.8"/>
	<path class="st1" d="M12,2.6c-1.8,1.3,0.5,5.8,1.9,8.2c2.8-0.4,5.7-0.5,8.5-0.1c1.4-2.4,3.6-6.8,1.8-8.1C24.2,2.6,19.1-1,12,2.6"/>
	<path class="st0" d="M12,2.6c-1.8,1.3,0.5,5.8,1.9,8.2c2.8-0.4,5.7-0.5,8.5-0.1c1.4-2.4,3.6-6.8,1.8-8.1C24.2,2.6,19.1-1,12,2.6z"
		/>
	<path class="st1" d="M14.8,14.9l-3.6,37.1l7.1,7l6.6-7l-3.6-37.2"/>
	<path class="st0" d="M14.8,14.9l-3.6,37.1l7.1,7l6.6-7l-3.6-37.2"/>
</g>
</svg>
