<svg xmlns="http://www.w3.org/2000/svg" width="50" height="52" viewBox="0 0 50 52">
    <g fill="none" fill-rule="evenodd">
        <path fill="#2E2D42" d="M29.195 48.88c.044.23.093.42.142.59h-8.88c.052-.17.1-.36.147-.59.146-.742.132-1.81.12-2.84-.004-.206-.006-.4-.007-.59h8.365l-.006.621c-.015 1.015-.03 2.066.12 2.81zM46.9 43.486H3.244c-.179 0-.533-.367-.533-.603v-2.9h44.405v2.965c0 .304-.154.538-.216.538zm2.167-5.495V11.882a2.255 2.255 0 0 0-2.254-2.253h-6.538V7.954H38.31v27.333h1.965V11.596h6.538c.16 0 .288.128.288.287v26.133H2.71V11.883c0-.159.127-.287.287-.287h6.612v23.691h1.966V2.285h21.07V.32H9.607v9.31H2.996a2.256 2.256 0 0 0-2.253 2.253v28.1h.003v2.9c0 1.32 1.215 2.568 2.498 2.568h15.508l.006.615c.006.389.01.823.005 1.23-.008.473-.03.912-.087 1.203-.061.301-.1.433-.122.489-.046.029-.098.053-.159.089l-.067.036a16.363 16.363 0 0 1-.745.358H16.34v1.966h15.425a.02.02 0 0 0 .007.002l.001-.002h1.72V49.47H32.18a17.384 17.384 0 0 1-.78-.378c-.06-.034-.112-.06-.157-.088a4.407 4.407 0 0 1-.119-.506c-.057-.282-.08-.694-.087-1.143-.007-.416 0-.862.004-1.26.003-.223.006-.438.007-.645H46.9c1.366 0 2.181-1.274 2.181-2.503V37.99h-.014z"/>
        <path fill="#FEFEFE" d="M5.351 35.288h4.256V14.296H5.35zM40.274 35.288h4.136V14.296h-4.136zM32.642 7.954H40.217L32.642.378v1.907z"/>
        <path fill="#2E2D42" d="M33.858 11.599V9.633H20.076V11.6zM20.076 14.672h13.782v-1.965H20.076zM14.955 11.453l-1.065 1.651 2.15 1.388 2.686-3.368-.641-.512-.895-.714-.57.714-1.01 1.264zM20.076 20.765h13.782V18.8H20.076zM20.076 23.84h13.782v-1.966H20.076zM18.726 20.29l-1.538-1.225-1.577 1.98-.657-.425-1.067 1.652 2.152 1.386zM20.076 29.933h13.782v-1.965H20.076zM20.076 33.005h13.782V31.04H20.076zM18.726 29.458l-1.538-1.226-1.577 1.979-.657-.424-1.067 1.652 2.152 1.386z"/>
    </g>
</svg>
