<svg xmlns="http://www.w3.org/2000/svg" width="500" height="500" viewBox="0 0 500 500">
    <g fill="none" fill-rule="evenodd">
        <path fill="#2D2D41" d="M250.005 0C111.918 0 0 111.923 0 250.016 0 388.1 111.918 500 250.005 500S500 388.099 500 250.016C500 111.923 388.092 0 250.005 0"/>
        <path fill="#63C9E0" d="M186.23 142.699h42.586l21.283 36.88-21.283 36.913H186.23l-21.337-36.913zM228.81 400.75h-42.586l-21.337-36.902 21.337-36.913h42.587l21.282 36.913zM228.81 308.577h-42.586l-21.337-36.891 21.337-36.913h42.587l21.282 36.913zM311.214 262.557h-42.62l-21.304-36.88 21.305-36.827h42.62l21.303 36.826zM311.214 170.451h-42.62L247.29 133.56l21.305-36.902h42.62l21.303 36.902z"/>
    </g>
</svg>
